<svg width="600" height="392" xmlns="http://www.w3.org/2000/svg"> <rect width="100%" height="100%" fill="#FEFEFE" />
<line x1="70" y1="252" x2="530" y2="252" stroke="#9f9f9f" stroke-width="1" />
<rect x="70" y="87" width="460" height="165" fill="#FEFEFE" />
<text text-anchor="middle" x="300.0" y="20" font-family="'Helvetica Neue', Arial, sans-serif" font-weight="bold" font-size="22" fill="#000000">The distance between Neptune and Earth</text>
<text text-anchor="middle" x="300.0" y="42" font-family="'Helvetica Neue', Arial, sans-serif" font-size="14" fill="#000000">correlates with</text>
<text text-anchor="middle" x="300.0" y="68" font-family="'Helvetica Neue', Arial, sans-serif" font-weight="bold" font-size="22" fill="#ba0f27">Burglaries in Kansas</text>
<text text-anchor="start" x="23" y="297.3333333333333" font-family="'Helvetica Neue', Arial, sans-serif" font-size="14" fill="#9f9f9f">The average distance between Neptune and Earth as measured on the first day of</text>
<text text-anchor="start" x="23" y="313.3333333333333" font-family="'Helvetica Neue', Arial, sans-serif" font-size="14" fill="#9f9f9f">each month &#183; Source: Caclculated using Astropy</text>
<text text-anchor="start" x="23" y="336.66666666666663" font-family="'Helvetica Neue', Arial, sans-serif" font-size="14" fill="#9f9f9f">The burglary rate per 100,000 residents in Kansas &#183; Source: FBI Criminal</text>
<text text-anchor="start" x="23" y="352.66666666666663" font-family="'Helvetica Neue', Arial, sans-serif" font-size="14" fill="#9f9f9f">Justice Information Services</text>
<text text-anchor="start" x="23" y="375.99999999999994" font-family="'Helvetica Neue', Arial, sans-serif" font-size="14" fill="#9f9f9f">1985-2022, r=0.963, r&#178;=0.927, p&lt;0.01  &#183;  tylervigen.com/spurious/correlation/2428</text>
<polyline points="5,292.66666666666663 20,292.66666666666663" style="fill:none;stroke:#000000;stroke-width:1.75" stroke-dasharray="3,1" />
<polygon points="3.14,292.66666666666663 5,290.8066666666666 6.859999999999999,292.66666666666663 5,294.52666666666664" stroke="#F7F7F7" stroke-width="1.55" fill="#F7F7F7"  />
<polygon points="3.14,292.66666666666663 5,290.8066666666666 6.859999999999999,292.66666666666663 5,294.52666666666664" stroke="#000000" stroke-width="1.55" fill="#000000"  />
<polyline points="5,331.99999999999994 20,331.99999999999994" style="fill:none;stroke:#ba0f27;stroke-width:1.75" />
<circle cx="5" cy="331.99999999999994" r="1.55" stroke="#F7F7F7" stroke-width="1.55" fill="#F7F7F7" />
<circle cx="5" cy="331.99999999999994" r="1.55" stroke="#ba0f27" stroke-width="1.55" fill="#ba0f27"  />
<text x="5" y="174.5" transform="rotate(270 5 169.5)" text-anchor="middle" fill="#000000" font-family="'Helvetica Neue', Arial, sans-serif" font-size="14" dominant-baseline="central">Planetary distance (AU)</text>
<text x="169.5" y="-389" transform="rotate(90 100 100)" text-anchor="middle" fill="#ba0f27" font-family="'Helvetica Neue', Arial, sans-serif" font-size="14" dominant-baseline="central">Burglary rate</text>
<line x1="71" y1="93.55" x2="528" y2="93.55" stroke="#F3F3F3" stroke-width="1" fill="#FEFEFE" />
<text text-anchor="end" x="62" y="98.21666666666667" font-family="'Helvetica Neue', Arial, sans-serif" font-size="12" fill="#000000">30.23</text>
<text text-anchor="start" x="538" y="98.21666666666667" font-family="'Helvetica Neue', Arial, sans-serif" font-size="12" fill="#ba0f27">1.3K</text>
<line x1="71" y1="131.525" x2="528" y2="131.525" stroke="#F3F3F3" stroke-width="1" fill="#FEFEFE" />
<text text-anchor="end" x="62" y="136.19166666666666" font-family="'Helvetica Neue', Arial, sans-serif" font-size="12">30.16</text>
<text text-anchor="start" x="538" y="136.19166666666666" font-family="'Helvetica Neue', Arial, sans-serif" font-size="12" fill="#ba0f27">1.0K</text>
<line x1="71" y1="169.5" x2="528" y2="169.5" stroke="#F3F3F3" stroke-width="1" fill="#FEFEFE" />
<text text-anchor="end" x="62" y="174.16666666666666" font-family="'Helvetica Neue', Arial, sans-serif" font-size="12">30.08</text>
<text text-anchor="start" x="538" y="174.16666666666666" font-family="'Helvetica Neue', Arial, sans-serif" font-size="12" fill="#ba0f27">790</text>
<line x1="71" y1="207.47500000000002" x2="528" y2="207.47500000000002" stroke="#F3F3F3" stroke-width="1" fill="#FEFEFE" />
<text text-anchor="end" x="62" y="212.14166666666668" font-family="'Helvetica Neue', Arial, sans-serif" font-size="12">30.0</text>
<text text-anchor="start" x="538" y="212.14166666666668" font-family="'Helvetica Neue', Arial, sans-serif" font-size="12" fill="#ba0f27">532</text>
<line x1="71" y1="245.45" x2="528" y2="245.45" stroke="#F3F3F3" stroke-width="1" fill="#FEFEFE" />
<text text-anchor="end" x="62" y="250.11666666666665" font-family="'Helvetica Neue', Arial, sans-serif" font-size="12">29.92</text>
<text text-anchor="start" x="538" y="250.11666666666665" font-family="'Helvetica Neue', Arial, sans-serif" font-size="12" fill="#ba0f27">273</text>
<polyline points="76.55000000000003,252 76.55000000000003,258" style="fill:none;stroke:#000000;stroke-width:1" />
<polyline points="136.9418918918919,252 136.9418918918919,258" style="fill:none;stroke:#000000;stroke-width:1" />
<polyline points="197.33378378378382,252 197.33378378378382,258" style="fill:none;stroke:#000000;stroke-width:1" />
<polyline points="257.7256756756757,252 257.7256756756757,258" style="fill:none;stroke:#000000;stroke-width:1" />
<polyline points="318.11756756756756,252 318.11756756756756,258" style="fill:none;stroke:#000000;stroke-width:1" />
<polyline points="378.50945945945944,252 378.50945945945944,258" style="fill:none;stroke:#000000;stroke-width:1" />
<polyline points="438.90135135135137,252 438.90135135135137,258" style="fill:none;stroke:#000000;stroke-width:1" />
<polyline points="499.29324324324324,252 499.29324324324324,258" style="fill:none;stroke:#000000;stroke-width:1" />
<text text-anchor="middle" x="76.55000000000003" y="273" font-weight="bold" font-family="'Helvetica Neue', Arial, sans-serif" font-size="14">1985</text>
<text text-anchor="middle" x="136.9418918918919" y="273" font-weight="bold" font-family="'Helvetica Neue', Arial, sans-serif" font-size="14">1990</text>
<text text-anchor="middle" x="197.33378378378382" y="273" font-weight="bold" font-family="'Helvetica Neue', Arial, sans-serif" font-size="14">1995</text>
<text text-anchor="middle" x="257.7256756756757" y="273" font-weight="bold" font-family="'Helvetica Neue', Arial, sans-serif" font-size="14">2000</text>
<text text-anchor="middle" x="318.11756756756756" y="273" font-weight="bold" font-family="'Helvetica Neue', Arial, sans-serif" font-size="14">2005</text>
<text text-anchor="middle" x="378.50945945945944" y="273" font-weight="bold" font-family="'Helvetica Neue', Arial, sans-serif" font-size="14">2010</text>
<text text-anchor="middle" x="438.90135135135137" y="273" font-weight="bold" font-family="'Helvetica Neue', Arial, sans-serif" font-size="14">2015</text>
<text text-anchor="middle" x="499.29324324324324" y="273" font-weight="bold" font-family="'Helvetica Neue', Arial, sans-serif" font-size="14">2020</text>
<polyline points="76.55000000000003,131.1979144488532 88.6283783783784,111.04356430852607" style="fill:none;stroke:#ba0f27;stroke-width:1.75"  />
<polyline points="88.6283783783784,111.04356430852607 100.70675675675679,118.34969999032226" style="fill:none;stroke:#ba0f27;stroke-width:1.75"  />
<polyline points="100.70675675675679,118.34969999032226 112.78513513513516,112.32250556469563" style="fill:none;stroke:#ba0f27;stroke-width:1.75"  />
<polyline points="112.78513513513516,112.32250556469563 124.86351351351354,110.89655956643762" style="fill:none;stroke:#ba0f27;stroke-width:1.75"  />
<polyline points="124.86351351351354,110.89655956643762 136.9418918918919,114.16006484080131" style="fill:none;stroke:#ba0f27;stroke-width:1.75"  />
<polyline points="136.9418918918919,114.16006484080131 149.02027027027032,93.55" style="fill:none;stroke:#ba0f27;stroke-width:1.75"  />
<polyline points="149.02027027027032,93.55 161.0986486486487,95.4610616471499" style="fill:none;stroke:#ba0f27;stroke-width:1.75"  />
<polyline points="161.0986486486487,95.4610616471499 173.17702702702707,119.2023274944353" style="fill:none;stroke:#ba0f27;stroke-width:1.75"  />
<polyline points="173.17702702702707,119.2023274944353 185.25540540540544,120.81937965740829" style="fill:none;stroke:#ba0f27;stroke-width:1.75"  />
<polyline points="185.25540540540544,120.81937965740829 197.33378378378382,128.58123003967867" style="fill:none;stroke:#ba0f27;stroke-width:1.75"  />
<polyline points="197.33378378378382,128.58123003967867 209.4121621621622,141.38534307558308" style="fill:none;stroke:#ba0f27;stroke-width:1.75"  />
<polyline points="209.4121621621622,141.38534307558308 221.49054054054056,148.02995741798122" style="fill:none;stroke:#ba0f27;stroke-width:1.75"  />
<polyline points="221.49054054054056,148.02995741798122 233.56891891891894,145.94249008032517" style="fill:none;stroke:#ba0f27;stroke-width:1.75"  />
<polyline points="233.56891891891894,145.94249008032517 245.6472972972973,164.47978805767926" style="fill:none;stroke:#ba0f27;stroke-width:1.75"  />
<polyline points="245.6472972972973,164.47978805767926 257.7256756756757,168.16960708409948" style="fill:none;stroke:#ba0f27;stroke-width:1.75"  />
<polyline points="257.7256756756757,168.16960708409948 269.80405405405406,174.0350962934288" style="fill:none;stroke:#ba0f27;stroke-width:1.75"  />
<polyline points="269.80405405405406,174.0350962934288 281.88243243243244,178.95975515339202" style="fill:none;stroke:#ba0f27;stroke-width:1.75"  />
<polyline points="281.88243243243244,178.95975515339202 293.9608108108108,167.09647246685375" style="fill:none;stroke:#ba0f27;stroke-width:1.75"  />
<polyline points="293.9608108108108,167.09647246685375 306.0391891891892,177.2986015677925" style="fill:none;stroke:#ba0f27;stroke-width:1.75"  />
<polyline points="306.0391891891892,177.2986015677925 318.11756756756756,183.85501306493757" style="fill:none;stroke:#ba0f27;stroke-width:1.75"  />
<polyline points="318.11756756756756,183.85501306493757 330.195945945946,178.81275041130357" style="fill:none;stroke:#ba0f27;stroke-width:1.75"  />
<polyline points="330.195945945946,178.81275041130357 342.2743243243243,177.28390109358367" style="fill:none;stroke:#ba0f27;stroke-width:1.75"  />
<polyline points="342.2743243243243,177.28390109358367 354.3527027027027,182.54667086035033" style="fill:none;stroke:#ba0f27;stroke-width:1.75"  />
<polyline points="354.3527027027027,182.54667086035033 366.4310810810811,184.0902206522791" style="fill:none;stroke:#ba0f27;stroke-width:1.75"  />
<polyline points="366.4310810810811,184.0902206522791 378.5094594594595,186.3246927320236" style="fill:none;stroke:#ba0f27;stroke-width:1.75"  />
<polyline points="378.5094594594595,186.3246927320236 390.58783783783787,189.80870511951997" style="fill:none;stroke:#ba0f27;stroke-width:1.75"  />
<polyline points="390.58783783783787,189.80870511951997 402.66621621621624,189.48529468692536" style="fill:none;stroke:#ba0f27;stroke-width:1.75"  />
<polyline points="402.66621621621624,189.48529468692536 414.7445945945946,196.92373463660115" style="fill:none;stroke:#ba0f27;stroke-width:1.75"  />
<polyline points="414.7445945945946,196.92373463660115 426.822972972973,205.00899545146615" style="fill:none;stroke:#ba0f27;stroke-width:1.75"  />
<polyline points="426.822972972973,205.00899545146615 438.90135135135137,206.65544856285686" style="fill:none;stroke:#ba0f27;stroke-width:1.75"  />
<polyline points="438.90135135135137,206.65544856285686 450.97972972972974,211.02148940288396" style="fill:none;stroke:#ba0f27;stroke-width:1.75"  />
<polyline points="450.97972972972974,211.02148940288396 463.0581081081081,219.47426207297008" style="fill:none;stroke:#ba0f27;stroke-width:1.75"  />
<polyline points="463.0581081081081,219.47426207297008 475.1364864864865,221.04721281331655" style="fill:none;stroke:#ba0f27;stroke-width:1.75"  />
<polyline points="475.1364864864865,221.04721281331655 487.21486486486486,235.18906900222584" style="fill:none;stroke:#ba0f27;stroke-width:1.75"  />
<polyline points="487.21486486486486,235.18906900222584 499.29324324324324,236.92372495886963" style="fill:none;stroke:#ba0f27;stroke-width:1.75"  />
<polyline points="499.29324324324324,236.92372495886963 511.3716216216216,236.7620197425723" style="fill:none;stroke:#ba0f27;stroke-width:1.75"  />
<polyline points="511.3716216216216,236.7620197425723 523.45,245.45" style="fill:none;stroke:#ba0f27;stroke-width:1.75"  />
<circle cx="76.55000000000003" cy="131.1979144488532" r="1.55" stroke="#F7F7F7" stroke-width="1.55" fill="#F7F7F7" />
<circle cx="76.55000000000003" cy="131.1979144488532" r="1.55" stroke="#ba0f27" stroke-width="1.55" fill="#ba0f27"  />
<circle cx="88.6283783783784" cy="111.04356430852607" r="1.55" stroke="#F7F7F7" stroke-width="1.55" fill="#F7F7F7" />
<circle cx="88.6283783783784" cy="111.04356430852607" r="1.55" stroke="#ba0f27" stroke-width="1.55" fill="#ba0f27"  />
<circle cx="100.70675675675679" cy="118.34969999032226" r="1.55" stroke="#F7F7F7" stroke-width="1.55" fill="#F7F7F7" />
<circle cx="100.70675675675679" cy="118.34969999032226" r="1.55" stroke="#ba0f27" stroke-width="1.55" fill="#ba0f27"  />
<circle cx="112.78513513513516" cy="112.32250556469563" r="1.55" stroke="#F7F7F7" stroke-width="1.55" fill="#F7F7F7" />
<circle cx="112.78513513513516" cy="112.32250556469563" r="1.55" stroke="#ba0f27" stroke-width="1.55" fill="#ba0f27"  />
<circle cx="124.86351351351354" cy="110.89655956643762" r="1.55" stroke="#F7F7F7" stroke-width="1.55" fill="#F7F7F7" />
<circle cx="124.86351351351354" cy="110.89655956643762" r="1.55" stroke="#ba0f27" stroke-width="1.55" fill="#ba0f27"  />
<circle cx="136.9418918918919" cy="114.16006484080131" r="1.55" stroke="#F7F7F7" stroke-width="1.55" fill="#F7F7F7" />
<circle cx="136.9418918918919" cy="114.16006484080131" r="1.55" stroke="#ba0f27" stroke-width="1.55" fill="#ba0f27"  />
<circle cx="149.02027027027032" cy="93.55" r="1.55" stroke="#F7F7F7" stroke-width="1.55" fill="#F7F7F7" />
<circle cx="149.02027027027032" cy="93.55" r="1.55" stroke="#ba0f27" stroke-width="1.55" fill="#ba0f27"  />
<circle cx="161.0986486486487" cy="95.4610616471499" r="1.55" stroke="#F7F7F7" stroke-width="1.55" fill="#F7F7F7" />
<circle cx="161.0986486486487" cy="95.4610616471499" r="1.55" stroke="#ba0f27" stroke-width="1.55" fill="#ba0f27"  />
<circle cx="173.17702702702707" cy="119.2023274944353" r="1.55" stroke="#F7F7F7" stroke-width="1.55" fill="#F7F7F7" />
<circle cx="173.17702702702707" cy="119.2023274944353" r="1.55" stroke="#ba0f27" stroke-width="1.55" fill="#ba0f27"  />
<circle cx="185.25540540540544" cy="120.81937965740829" r="1.55" stroke="#F7F7F7" stroke-width="1.55" fill="#F7F7F7" />
<circle cx="185.25540540540544" cy="120.81937965740829" r="1.55" stroke="#ba0f27" stroke-width="1.55" fill="#ba0f27"  />
<circle cx="197.33378378378382" cy="128.58123003967867" r="1.55" stroke="#F7F7F7" stroke-width="1.55" fill="#F7F7F7" />
<circle cx="197.33378378378382" cy="128.58123003967867" r="1.55" stroke="#ba0f27" stroke-width="1.55" fill="#ba0f27"  />
<circle cx="209.4121621621622" cy="141.38534307558308" r="1.55" stroke="#F7F7F7" stroke-width="1.55" fill="#F7F7F7" />
<circle cx="209.4121621621622" cy="141.38534307558308" r="1.55" stroke="#ba0f27" stroke-width="1.55" fill="#ba0f27"  />
<circle cx="221.49054054054056" cy="148.02995741798122" r="1.55" stroke="#F7F7F7" stroke-width="1.55" fill="#F7F7F7" />
<circle cx="221.49054054054056" cy="148.02995741798122" r="1.55" stroke="#ba0f27" stroke-width="1.55" fill="#ba0f27"  />
<circle cx="233.56891891891894" cy="145.94249008032517" r="1.55" stroke="#F7F7F7" stroke-width="1.55" fill="#F7F7F7" />
<circle cx="233.56891891891894" cy="145.94249008032517" r="1.55" stroke="#ba0f27" stroke-width="1.55" fill="#ba0f27"  />
<circle cx="245.6472972972973" cy="164.47978805767926" r="1.55" stroke="#F7F7F7" stroke-width="1.55" fill="#F7F7F7" />
<circle cx="245.6472972972973" cy="164.47978805767926" r="1.55" stroke="#ba0f27" stroke-width="1.55" fill="#ba0f27"  />
<circle cx="257.7256756756757" cy="168.16960708409948" r="1.55" stroke="#F7F7F7" stroke-width="1.55" fill="#F7F7F7" />
<circle cx="257.7256756756757" cy="168.16960708409948" r="1.55" stroke="#ba0f27" stroke-width="1.55" fill="#ba0f27"  />
<circle cx="269.80405405405406" cy="174.0350962934288" r="1.55" stroke="#F7F7F7" stroke-width="1.55" fill="#F7F7F7" />
<circle cx="269.80405405405406" cy="174.0350962934288" r="1.55" stroke="#ba0f27" stroke-width="1.55" fill="#ba0f27"  />
<circle cx="281.88243243243244" cy="178.95975515339202" r="1.55" stroke="#F7F7F7" stroke-width="1.55" fill="#F7F7F7" />
<circle cx="281.88243243243244" cy="178.95975515339202" r="1.55" stroke="#ba0f27" stroke-width="1.55" fill="#ba0f27"  />
<circle cx="293.9608108108108" cy="167.09647246685375" r="1.55" stroke="#F7F7F7" stroke-width="1.55" fill="#F7F7F7" />
<circle cx="293.9608108108108" cy="167.09647246685375" r="1.55" stroke="#ba0f27" stroke-width="1.55" fill="#ba0f27"  />
<circle cx="306.0391891891892" cy="177.2986015677925" r="1.55" stroke="#F7F7F7" stroke-width="1.55" fill="#F7F7F7" />
<circle cx="306.0391891891892" cy="177.2986015677925" r="1.55" stroke="#ba0f27" stroke-width="1.55" fill="#ba0f27"  />
<circle cx="318.11756756756756" cy="183.85501306493757" r="1.55" stroke="#F7F7F7" stroke-width="1.55" fill="#F7F7F7" />
<circle cx="318.11756756756756" cy="183.85501306493757" r="1.55" stroke="#ba0f27" stroke-width="1.55" fill="#ba0f27"  />
<circle cx="330.195945945946" cy="178.81275041130357" r="1.55" stroke="#F7F7F7" stroke-width="1.55" fill="#F7F7F7" />
<circle cx="330.195945945946" cy="178.81275041130357" r="1.55" stroke="#ba0f27" stroke-width="1.55" fill="#ba0f27"  />
<circle cx="342.2743243243243" cy="177.28390109358367" r="1.55" stroke="#F7F7F7" stroke-width="1.55" fill="#F7F7F7" />
<circle cx="342.2743243243243" cy="177.28390109358367" r="1.55" stroke="#ba0f27" stroke-width="1.55" fill="#ba0f27"  />
<circle cx="354.3527027027027" cy="182.54667086035033" r="1.55" stroke="#F7F7F7" stroke-width="1.55" fill="#F7F7F7" />
<circle cx="354.3527027027027" cy="182.54667086035033" r="1.55" stroke="#ba0f27" stroke-width="1.55" fill="#ba0f27"  />
<circle cx="366.4310810810811" cy="184.0902206522791" r="1.55" stroke="#F7F7F7" stroke-width="1.55" fill="#F7F7F7" />
<circle cx="366.4310810810811" cy="184.0902206522791" r="1.55" stroke="#ba0f27" stroke-width="1.55" fill="#ba0f27"  />
<circle cx="378.5094594594595" cy="186.3246927320236" r="1.55" stroke="#F7F7F7" stroke-width="1.55" fill="#F7F7F7" />
<circle cx="378.5094594594595" cy="186.3246927320236" r="1.55" stroke="#ba0f27" stroke-width="1.55" fill="#ba0f27"  />
<circle cx="390.58783783783787" cy="189.80870511951997" r="1.55" stroke="#F7F7F7" stroke-width="1.55" fill="#F7F7F7" />
<circle cx="390.58783783783787" cy="189.80870511951997" r="1.55" stroke="#ba0f27" stroke-width="1.55" fill="#ba0f27"  />
<circle cx="402.66621621621624" cy="189.48529468692536" r="1.55" stroke="#F7F7F7" stroke-width="1.55" fill="#F7F7F7" />
<circle cx="402.66621621621624" cy="189.48529468692536" r="1.55" stroke="#ba0f27" stroke-width="1.55" fill="#ba0f27"  />
<circle cx="414.7445945945946" cy="196.92373463660115" r="1.55" stroke="#F7F7F7" stroke-width="1.55" fill="#F7F7F7" />
<circle cx="414.7445945945946" cy="196.92373463660115" r="1.55" stroke="#ba0f27" stroke-width="1.55" fill="#ba0f27"  />
<circle cx="426.822972972973" cy="205.00899545146615" r="1.55" stroke="#F7F7F7" stroke-width="1.55" fill="#F7F7F7" />
<circle cx="426.822972972973" cy="205.00899545146615" r="1.55" stroke="#ba0f27" stroke-width="1.55" fill="#ba0f27"  />
<circle cx="438.90135135135137" cy="206.65544856285686" r="1.55" stroke="#F7F7F7" stroke-width="1.55" fill="#F7F7F7" />
<circle cx="438.90135135135137" cy="206.65544856285686" r="1.55" stroke="#ba0f27" stroke-width="1.55" fill="#ba0f27"  />
<circle cx="450.97972972972974" cy="211.02148940288396" r="1.55" stroke="#F7F7F7" stroke-width="1.55" fill="#F7F7F7" />
<circle cx="450.97972972972974" cy="211.02148940288396" r="1.55" stroke="#ba0f27" stroke-width="1.55" fill="#ba0f27"  />
<circle cx="463.0581081081081" cy="219.47426207297008" r="1.55" stroke="#F7F7F7" stroke-width="1.55" fill="#F7F7F7" />
<circle cx="463.0581081081081" cy="219.47426207297008" r="1.55" stroke="#ba0f27" stroke-width="1.55" fill="#ba0f27"  />
<circle cx="475.1364864864865" cy="221.04721281331655" r="1.55" stroke="#F7F7F7" stroke-width="1.55" fill="#F7F7F7" />
<circle cx="475.1364864864865" cy="221.04721281331655" r="1.55" stroke="#ba0f27" stroke-width="1.55" fill="#ba0f27"  />
<circle cx="487.21486486486486" cy="235.18906900222584" r="1.55" stroke="#F7F7F7" stroke-width="1.55" fill="#F7F7F7" />
<circle cx="487.21486486486486" cy="235.18906900222584" r="1.55" stroke="#ba0f27" stroke-width="1.55" fill="#ba0f27"  />
<circle cx="499.29324324324324" cy="236.92372495886963" r="1.55" stroke="#F7F7F7" stroke-width="1.55" fill="#F7F7F7" />
<circle cx="499.29324324324324" cy="236.92372495886963" r="1.55" stroke="#ba0f27" stroke-width="1.55" fill="#ba0f27"  />
<circle cx="511.3716216216216" cy="236.7620197425723" r="1.55" stroke="#F7F7F7" stroke-width="1.55" fill="#F7F7F7" />
<circle cx="511.3716216216216" cy="236.7620197425723" r="1.55" stroke="#ba0f27" stroke-width="1.55" fill="#ba0f27"  />
<circle cx="523.45" cy="245.45" r="1.55" stroke="#F7F7F7" stroke-width="1.55" fill="#F7F7F7" />
<circle cx="523.45" cy="245.45" r="1.55" stroke="#ba0f27" stroke-width="1.55" fill="#ba0f27"  />
<polyline points="76.55000000000003,93.55 88.6283783783784,97.84951752975272" style="fill:none;stroke:#000000;stroke-width:1.75" stroke-dasharray="3,1"  />
<polyline points="88.6283783783784,97.84951752975272 100.70675675675679,102.5887584432291" style="fill:none;stroke:#000000;stroke-width:1.75" stroke-dasharray="3,1"  />
<polyline points="100.70675675675679,102.5887584432291 112.78513513513516,106.98599228047595" style="fill:none;stroke:#000000;stroke-width:1.75" stroke-dasharray="3,1"  />
<polyline points="112.78513513513516,106.98599228047595 124.86351351351354,111.96952396268942" style="fill:none;stroke:#000000;stroke-width:1.75" stroke-dasharray="3,1"  />
<polyline points="124.86351351351354,111.96952396268942 136.9418918918919,116.12246703119919" style="fill:none;stroke:#000000;stroke-width:1.75" stroke-dasharray="3,1"  />
<polyline points="136.9418918918919,116.12246703119919 149.02027027027032,119.83568671598532" style="fill:none;stroke:#000000;stroke-width:1.75" stroke-dasharray="3,1"  />
<polyline points="149.02027027027032,119.83568671598532 161.0986486486487,123.06032486330074" style="fill:none;stroke:#000000;stroke-width:1.75" stroke-dasharray="3,1"  />
<polyline points="161.0986486486487,123.06032486330074 173.17702702702707,126.43153747185562" style="fill:none;stroke:#000000;stroke-width:1.75" stroke-dasharray="3,1"  />
<polyline points="173.17702702702707,126.43153747185562 185.25540540540544,129.6561756191693" style="fill:none;stroke:#000000;stroke-width:1.75" stroke-dasharray="3,1"  />
<polyline points="185.25540540540544,129.6561756191693 197.33378378378382,133.2228208427142" style="fill:none;stroke:#000000;stroke-width:1.75" stroke-dasharray="3,1"  />
<polyline points="197.33378378378382,133.2228208427142 209.4121621621622,137.32690575747864" style="fill:none;stroke:#000000;stroke-width:1.75" stroke-dasharray="3,1"  />
<polyline points="209.4121621621622,137.32690575747864 221.49054054054056,141.96843036346087" style="fill:none;stroke:#000000;stroke-width:1.75" stroke-dasharray="3,1"  />
<polyline points="221.49054054054056,141.96843036346087 233.56891891891894,147.24511096815678" style="fill:none;stroke:#000000;stroke-width:1.75" stroke-dasharray="3,1"  />
<polyline points="233.56891891891894,147.24511096815678 245.6472972972973,152.91265680283098" style="fill:none;stroke:#000000;stroke-width:1.75" stroke-dasharray="3,1"  />
<polyline points="245.6472972972973,152.91265680283098 257.7256756756757,158.97106786748174" style="fill:none;stroke:#000000;stroke-width:1.75" stroke-dasharray="3,1"  />
<polyline points="257.7256756756757,158.97106786748174 269.80405405405406,164.49203924091302" style="fill:none;stroke:#000000;stroke-width:1.75" stroke-dasharray="3,1"  />
<polyline points="269.80405405405406,164.49203924091302 281.88243243243244,169.81757799935596" style="fill:none;stroke:#000000;stroke-width:1.75" stroke-dasharray="3,1"  />
<polyline points="281.88243243243244,169.81757799935596 293.9608108108108,174.60567706658117" style="fill:none;stroke:#000000;stroke-width:1.75" stroke-dasharray="3,1"  />
<polyline points="293.9608108108108,174.60567706658117 306.0391891891892,179.24720167256336" style="fill:none;stroke:#000000;stroke-width:1.75" stroke-dasharray="3,1"  />
<polyline points="306.0391891891892,179.24720167256336 318.11756756756756,182.52069797362412" style="fill:none;stroke:#000000;stroke-width:1.75" stroke-dasharray="3,1"  />
<polyline points="318.11756756756756,182.52069797362412 330.195945945946,185.89191058218074" style="fill:none;stroke:#000000;stroke-width:1.75" stroke-dasharray="3,1"  />
<polyline points="330.195945945946,185.89191058218074 342.2743243243243,189.26312319073566" style="fill:none;stroke:#000000;stroke-width:1.75" stroke-dasharray="3,1"  />
<polyline points="342.2743243243243,189.26312319073566 354.3527027027027,193.41606625924715" style="fill:none;stroke:#000000;stroke-width:1.75" stroke-dasharray="3,1"  />
<polyline points="354.3527027027027,193.41606625924715 366.4310810810811,196.83613702155083" style="fill:none;stroke:#000000;stroke-width:1.75" stroke-dasharray="3,1"  />
<polyline points="366.4310810810811,196.83613702155083 378.5094594594595,201.28222901254478" style="fill:none;stroke:#000000;stroke-width:1.75" stroke-dasharray="3,1"  />
<polyline points="378.5094594594595,201.28222901254478 390.58783783783787,206.16804438726237" style="fill:none;stroke:#000000;stroke-width:1.75" stroke-dasharray="3,1"  />
<polyline points="390.58783783783787,206.16804438726237 402.66621621621624,212.07988099067194" style="fill:none;stroke:#000000;stroke-width:1.75" stroke-dasharray="3,1"  />
<polyline points="402.66621621621624,212.07988099067194 414.7445945945946,216.4771148279188" style="fill:none;stroke:#000000;stroke-width:1.75" stroke-dasharray="3,1"  />
<polyline points="414.7445945945946,216.4771148279188 426.822972972973,221.3140720488893" style="fill:none;stroke:#000000;stroke-width:1.75" stroke-dasharray="3,1"  />
<polyline points="426.822972972973,221.3140720488893 438.90135135135137,225.7113058861362" style="fill:none;stroke:#000000;stroke-width:1.75" stroke-dasharray="3,1"  />
<polyline points="438.90135135135137,225.7113058861362 450.97972972972974,230.40168864586718" style="fill:none;stroke:#000000;stroke-width:1.75" stroke-dasharray="3,1"  />
<polyline points="450.97972972972974,230.40168864586718 463.0581081081081,232.55144741074355" style="fill:none;stroke:#000000;stroke-width:1.75" stroke-dasharray="3,1"  />
<polyline points="463.0581081081081,232.55144741074355 475.1364864864865,235.18978771309065" style="fill:none;stroke:#000000;stroke-width:1.75" stroke-dasharray="3,1"  />
<polyline points="475.1364864864865,235.18978771309065 487.21486486486486,237.4861209392082" style="fill:none;stroke:#000000;stroke-width:1.75" stroke-dasharray="3,1"  />
<polyline points="487.21486486486486,237.4861209392082 499.29324324324324,240.90619170151194" style="fill:none;stroke:#000000;stroke-width:1.75" stroke-dasharray="3,1"  />
<polyline points="499.29324324324324,240.90619170151194 511.3716216216216,242.42079446767463" style="fill:none;stroke:#000000;stroke-width:1.75" stroke-dasharray="3,1"  />
<polyline points="511.3716216216216,242.42079446767463 523.45,245.45" style="fill:none;stroke:#000000;stroke-width:1.75" stroke-dasharray="3,1"  />
<polygon points="74.69000000000003,93.55 76.55000000000003,91.69 78.41000000000003,93.55 76.55000000000003,95.41" stroke="#F7F7F7" stroke-width="1.55" fill="#F7F7F7"  />
<polygon points="74.69000000000003,93.55 76.55000000000003,91.69 78.41000000000003,93.55 76.55000000000003,95.41" stroke="#000000" stroke-width="1.55" fill="#000000"  />
<polygon points="86.7683783783784,97.84951752975272 88.6283783783784,95.98951752975272 90.4883783783784,97.84951752975272 88.6283783783784,99.70951752975272" stroke="#F7F7F7" stroke-width="1.55" fill="#F7F7F7"  />
<polygon points="86.7683783783784,97.84951752975272 88.6283783783784,95.98951752975272 90.4883783783784,97.84951752975272 88.6283783783784,99.70951752975272" stroke="#000000" stroke-width="1.55" fill="#000000"  />
<polygon points="98.84675675675679,102.5887584432291 100.70675675675679,100.7287584432291 102.56675675675679,102.5887584432291 100.70675675675679,104.4487584432291" stroke="#F7F7F7" stroke-width="1.55" fill="#F7F7F7"  />
<polygon points="98.84675675675679,102.5887584432291 100.70675675675679,100.7287584432291 102.56675675675679,102.5887584432291 100.70675675675679,104.4487584432291" stroke="#000000" stroke-width="1.55" fill="#000000"  />
<polygon points="110.92513513513516,106.98599228047595 112.78513513513516,105.12599228047596 114.64513513513516,106.98599228047595 112.78513513513516,108.84599228047595" stroke="#F7F7F7" stroke-width="1.55" fill="#F7F7F7"  />
<polygon points="110.92513513513516,106.98599228047595 112.78513513513516,105.12599228047596 114.64513513513516,106.98599228047595 112.78513513513516,108.84599228047595" stroke="#000000" stroke-width="1.55" fill="#000000"  />
<polygon points="123.00351351351354,111.96952396268942 124.86351351351354,110.10952396268942 126.72351351351354,111.96952396268942 124.86351351351354,113.82952396268942" stroke="#F7F7F7" stroke-width="1.55" fill="#F7F7F7"  />
<polygon points="123.00351351351354,111.96952396268942 124.86351351351354,110.10952396268942 126.72351351351354,111.96952396268942 124.86351351351354,113.82952396268942" stroke="#000000" stroke-width="1.55" fill="#000000"  />
<polygon points="135.0818918918919,116.12246703119919 136.9418918918919,114.2624670311992 138.80189189189193,116.12246703119919 136.9418918918919,117.98246703119919" stroke="#F7F7F7" stroke-width="1.55" fill="#F7F7F7"  />
<polygon points="135.0818918918919,116.12246703119919 136.9418918918919,114.2624670311992 138.80189189189193,116.12246703119919 136.9418918918919,117.98246703119919" stroke="#000000" stroke-width="1.55" fill="#000000"  />
<polygon points="147.1602702702703,119.83568671598532 149.02027027027032,117.97568671598532 150.88027027027033,119.83568671598532 149.02027027027032,121.69568671598532" stroke="#F7F7F7" stroke-width="1.55" fill="#F7F7F7"  />
<polygon points="147.1602702702703,119.83568671598532 149.02027027027032,117.97568671598532 150.88027027027033,119.83568671598532 149.02027027027032,121.69568671598532" stroke="#000000" stroke-width="1.55" fill="#000000"  />
<polygon points="159.23864864864868,123.06032486330074 161.0986486486487,121.20032486330074 162.9586486486487,123.06032486330074 161.0986486486487,124.92032486330073" stroke="#F7F7F7" stroke-width="1.55" fill="#F7F7F7"  />
<polygon points="159.23864864864868,123.06032486330074 161.0986486486487,121.20032486330074 162.9586486486487,123.06032486330074 161.0986486486487,124.92032486330073" stroke="#000000" stroke-width="1.55" fill="#000000"  />
<polygon points="171.31702702702705,126.43153747185562 173.17702702702707,124.57153747185562 175.03702702702708,126.43153747185562 173.17702702702707,128.29153747185563" stroke="#F7F7F7" stroke-width="1.55" fill="#F7F7F7"  />
<polygon points="171.31702702702705,126.43153747185562 173.17702702702707,124.57153747185562 175.03702702702708,126.43153747185562 173.17702702702707,128.29153747185563" stroke="#000000" stroke-width="1.55" fill="#000000"  />
<polygon points="183.39540540540543,129.6561756191693 185.25540540540544,127.79617561916929 187.11540540540545,129.6561756191693 185.25540540540544,131.5161756191693" stroke="#F7F7F7" stroke-width="1.55" fill="#F7F7F7"  />
<polygon points="183.39540540540543,129.6561756191693 185.25540540540544,127.79617561916929 187.11540540540545,129.6561756191693 185.25540540540544,131.5161756191693" stroke="#000000" stroke-width="1.55" fill="#000000"  />
<polygon points="195.4737837837838,133.2228208427142 197.33378378378382,131.3628208427142 199.19378378378383,133.2228208427142 197.33378378378382,135.08282084271423" stroke="#F7F7F7" stroke-width="1.55" fill="#F7F7F7"  />
<polygon points="195.4737837837838,133.2228208427142 197.33378378378382,131.3628208427142 199.19378378378383,133.2228208427142 197.33378378378382,135.08282084271423" stroke="#000000" stroke-width="1.55" fill="#000000"  />
<polygon points="207.55216216216218,137.32690575747864 209.4121621621622,135.46690575747863 211.2721621621622,137.32690575747864 209.4121621621622,139.18690575747866" stroke="#F7F7F7" stroke-width="1.55" fill="#F7F7F7"  />
<polygon points="207.55216216216218,137.32690575747864 209.4121621621622,135.46690575747863 211.2721621621622,137.32690575747864 209.4121621621622,139.18690575747866" stroke="#000000" stroke-width="1.55" fill="#000000"  />
<polygon points="219.63054054054055,141.96843036346087 221.49054054054056,140.10843036346085 223.35054054054058,141.96843036346087 221.49054054054056,143.82843036346088" stroke="#F7F7F7" stroke-width="1.55" fill="#F7F7F7"  />
<polygon points="219.63054054054055,141.96843036346087 221.49054054054056,140.10843036346085 223.35054054054058,141.96843036346087 221.49054054054056,143.82843036346088" stroke="#000000" stroke-width="1.55" fill="#000000"  />
<polygon points="231.70891891891893,147.24511096815678 233.56891891891894,145.38511096815677 235.42891891891895,147.24511096815678 233.56891891891894,149.1051109681568" stroke="#F7F7F7" stroke-width="1.55" fill="#F7F7F7"  />
<polygon points="231.70891891891893,147.24511096815678 233.56891891891894,145.38511096815677 235.42891891891895,147.24511096815678 233.56891891891894,149.1051109681568" stroke="#000000" stroke-width="1.55" fill="#000000"  />
<polygon points="243.7872972972973,152.91265680283098 245.6472972972973,151.05265680283097 247.50729729729733,152.91265680283098 245.6472972972973,154.772656802831" stroke="#F7F7F7" stroke-width="1.55" fill="#F7F7F7"  />
<polygon points="243.7872972972973,152.91265680283098 245.6472972972973,151.05265680283097 247.50729729729733,152.91265680283098 245.6472972972973,154.772656802831" stroke="#000000" stroke-width="1.55" fill="#000000"  />
<polygon points="255.86567567567567,158.97106786748174 257.7256756756757,157.11106786748172 259.5856756756757,158.97106786748174 257.7256756756757,160.83106786748175" stroke="#F7F7F7" stroke-width="1.55" fill="#F7F7F7"  />
<polygon points="255.86567567567567,158.97106786748174 257.7256756756757,157.11106786748172 259.5856756756757,158.97106786748174 257.7256756756757,160.83106786748175" stroke="#000000" stroke-width="1.55" fill="#000000"  />
<polygon points="267.94405405405405,164.49203924091302 269.80405405405406,162.632039240913 271.6640540540541,164.49203924091302 269.80405405405406,166.35203924091303" stroke="#F7F7F7" stroke-width="1.55" fill="#F7F7F7"  />
<polygon points="267.94405405405405,164.49203924091302 269.80405405405406,162.632039240913 271.6640540540541,164.49203924091302 269.80405405405406,166.35203924091303" stroke="#000000" stroke-width="1.55" fill="#000000"  />
<polygon points="280.0224324324324,169.81757799935596 281.88243243243244,167.95757799935595 283.74243243243245,169.81757799935596 281.88243243243244,171.67757799935598" stroke="#F7F7F7" stroke-width="1.55" fill="#F7F7F7"  />
<polygon points="280.0224324324324,169.81757799935596 281.88243243243244,167.95757799935595 283.74243243243245,169.81757799935596 281.88243243243244,171.67757799935598" stroke="#000000" stroke-width="1.55" fill="#000000"  />
<polygon points="292.1008108108108,174.60567706658117 293.9608108108108,172.74567706658115 295.8208108108108,174.60567706658117 293.9608108108108,176.46567706658118" stroke="#F7F7F7" stroke-width="1.55" fill="#F7F7F7"  />
<polygon points="292.1008108108108,174.60567706658117 293.9608108108108,172.74567706658115 295.8208108108108,174.60567706658117 293.9608108108108,176.46567706658118" stroke="#000000" stroke-width="1.55" fill="#000000"  />
<polygon points="304.1791891891892,179.24720167256336 306.0391891891892,177.38720167256335 307.8991891891892,179.24720167256336 306.0391891891892,181.10720167256338" stroke="#F7F7F7" stroke-width="1.55" fill="#F7F7F7"  />
<polygon points="304.1791891891892,179.24720167256336 306.0391891891892,177.38720167256335 307.8991891891892,179.24720167256336 306.0391891891892,181.10720167256338" stroke="#000000" stroke-width="1.55" fill="#000000"  />
<polygon points="316.25756756756755,182.52069797362412 318.11756756756756,180.6606979736241 319.9775675675676,182.52069797362412 318.11756756756756,184.38069797362414" stroke="#F7F7F7" stroke-width="1.55" fill="#F7F7F7"  />
<polygon points="316.25756756756755,182.52069797362412 318.11756756756756,180.6606979736241 319.9775675675676,182.52069797362412 318.11756756756756,184.38069797362414" stroke="#000000" stroke-width="1.55" fill="#000000"  />
<polygon points="328.335945945946,185.89191058218074 330.195945945946,184.03191058218073 332.055945945946,185.89191058218074 330.195945945946,187.75191058218076" stroke="#F7F7F7" stroke-width="1.55" fill="#F7F7F7"  />
<polygon points="328.335945945946,185.89191058218074 330.195945945946,184.03191058218073 332.055945945946,185.89191058218074 330.195945945946,187.75191058218076" stroke="#000000" stroke-width="1.55" fill="#000000"  />
<polygon points="340.4143243243243,189.26312319073566 342.2743243243243,187.40312319073564 344.1343243243243,189.26312319073566 342.2743243243243,191.12312319073567" stroke="#F7F7F7" stroke-width="1.55" fill="#F7F7F7"  />
<polygon points="340.4143243243243,189.26312319073566 342.2743243243243,187.40312319073564 344.1343243243243,189.26312319073566 342.2743243243243,191.12312319073567" stroke="#000000" stroke-width="1.55" fill="#000000"  />
<polygon points="352.4927027027027,193.41606625924715 354.3527027027027,191.55606625924713 356.2127027027027,193.41606625924715 354.3527027027027,195.27606625924716" stroke="#F7F7F7" stroke-width="1.55" fill="#F7F7F7"  />
<polygon points="352.4927027027027,193.41606625924715 354.3527027027027,191.55606625924713 356.2127027027027,193.41606625924715 354.3527027027027,195.27606625924716" stroke="#000000" stroke-width="1.55" fill="#000000"  />
<polygon points="364.5710810810811,196.83613702155083 366.4310810810811,194.9761370215508 368.29108108108113,196.83613702155083 366.4310810810811,198.69613702155084" stroke="#F7F7F7" stroke-width="1.55" fill="#F7F7F7"  />
<polygon points="364.5710810810811,196.83613702155083 366.4310810810811,194.9761370215508 368.29108108108113,196.83613702155083 366.4310810810811,198.69613702155084" stroke="#000000" stroke-width="1.55" fill="#000000"  />
<polygon points="376.6494594594595,201.28222901254478 378.5094594594595,199.42222901254476 380.3694594594595,201.28222901254478 378.5094594594595,203.1422290125448" stroke="#F7F7F7" stroke-width="1.55" fill="#F7F7F7"  />
<polygon points="376.6494594594595,201.28222901254478 378.5094594594595,199.42222901254476 380.3694594594595,201.28222901254478 378.5094594594595,203.1422290125448" stroke="#000000" stroke-width="1.55" fill="#000000"  />
<polygon points="388.72783783783785,206.16804438726237 390.58783783783787,204.30804438726236 392.4478378378379,206.16804438726237 390.58783783783787,208.02804438726238" stroke="#F7F7F7" stroke-width="1.55" fill="#F7F7F7"  />
<polygon points="388.72783783783785,206.16804438726237 390.58783783783787,204.30804438726236 392.4478378378379,206.16804438726237 390.58783783783787,208.02804438726238" stroke="#000000" stroke-width="1.55" fill="#000000"  />
<polygon points="400.8062162162162,212.07988099067194 402.66621621621624,210.21988099067192 404.52621621621626,212.07988099067194 402.66621621621624,213.93988099067195" stroke="#F7F7F7" stroke-width="1.55" fill="#F7F7F7"  />
<polygon points="400.8062162162162,212.07988099067194 402.66621621621624,210.21988099067192 404.52621621621626,212.07988099067194 402.66621621621624,213.93988099067195" stroke="#000000" stroke-width="1.55" fill="#000000"  />
<polygon points="412.8845945945946,216.4771148279188 414.7445945945946,214.61711482791878 416.60459459459463,216.4771148279188 414.7445945945946,218.3371148279188" stroke="#F7F7F7" stroke-width="1.55" fill="#F7F7F7"  />
<polygon points="412.8845945945946,216.4771148279188 414.7445945945946,214.61711482791878 416.60459459459463,216.4771148279188 414.7445945945946,218.3371148279188" stroke="#000000" stroke-width="1.55" fill="#000000"  />
<polygon points="424.962972972973,221.3140720488893 426.822972972973,219.4540720488893 428.682972972973,221.3140720488893 426.822972972973,223.17407204888931" stroke="#F7F7F7" stroke-width="1.55" fill="#F7F7F7"  />
<polygon points="424.962972972973,221.3140720488893 426.822972972973,219.4540720488893 428.682972972973,221.3140720488893 426.822972972973,223.17407204888931" stroke="#000000" stroke-width="1.55" fill="#000000"  />
<polygon points="437.04135135135135,225.7113058861362 438.90135135135137,223.85130588613617 440.7613513513514,225.7113058861362 438.90135135135137,227.5713058861362" stroke="#F7F7F7" stroke-width="1.55" fill="#F7F7F7"  />
<polygon points="437.04135135135135,225.7113058861362 438.90135135135137,223.85130588613617 440.7613513513514,225.7113058861362 438.90135135135137,227.5713058861362" stroke="#000000" stroke-width="1.55" fill="#000000"  />
<polygon points="449.1197297297297,230.40168864586718 450.97972972972974,228.54168864586717 452.83972972972975,230.40168864586718 450.97972972972974,232.2616886458672" stroke="#F7F7F7" stroke-width="1.55" fill="#F7F7F7"  />
<polygon points="449.1197297297297,230.40168864586718 450.97972972972974,228.54168864586717 452.83972972972975,230.40168864586718 450.97972972972974,232.2616886458672" stroke="#000000" stroke-width="1.55" fill="#000000"  />
<polygon points="461.1981081081081,232.55144741074355 463.0581081081081,230.69144741074354 464.91810810810813,232.55144741074355 463.0581081081081,234.41144741074356" stroke="#F7F7F7" stroke-width="1.55" fill="#F7F7F7"  />
<polygon points="461.1981081081081,232.55144741074355 463.0581081081081,230.69144741074354 464.91810810810813,232.55144741074355 463.0581081081081,234.41144741074356" stroke="#000000" stroke-width="1.55" fill="#000000"  />
<polygon points="473.2764864864865,235.18978771309065 475.1364864864865,233.32978771309064 476.9964864864865,235.18978771309065 475.1364864864865,237.04978771309067" stroke="#F7F7F7" stroke-width="1.55" fill="#F7F7F7"  />
<polygon points="473.2764864864865,235.18978771309065 475.1364864864865,233.32978771309064 476.9964864864865,235.18978771309065 475.1364864864865,237.04978771309067" stroke="#000000" stroke-width="1.55" fill="#000000"  />
<polygon points="485.35486486486485,237.4861209392082 487.21486486486486,235.6261209392082 489.0748648648649,237.4861209392082 487.21486486486486,239.34612093920822" stroke="#F7F7F7" stroke-width="1.55" fill="#F7F7F7"  />
<polygon points="485.35486486486485,237.4861209392082 487.21486486486486,235.6261209392082 489.0748648648649,237.4861209392082 487.21486486486486,239.34612093920822" stroke="#000000" stroke-width="1.55" fill="#000000"  />
<polygon points="497.4332432432432,240.90619170151194 499.29324324324324,239.04619170151193 501.15324324324325,240.90619170151194 499.29324324324324,242.76619170151196" stroke="#F7F7F7" stroke-width="1.55" fill="#F7F7F7"  />
<polygon points="497.4332432432432,240.90619170151194 499.29324324324324,239.04619170151193 501.15324324324325,240.90619170151194 499.29324324324324,242.76619170151196" stroke="#000000" stroke-width="1.55" fill="#000000"  />
<polygon points="509.5116216216216,242.42079446767463 511.3716216216216,240.5607944676746 513.2316216216216,242.42079446767463 511.3716216216216,244.28079446767464" stroke="#F7F7F7" stroke-width="1.55" fill="#F7F7F7"  />
<polygon points="509.5116216216216,242.42079446767463 511.3716216216216,240.5607944676746 513.2316216216216,242.42079446767463 511.3716216216216,244.28079446767464" stroke="#000000" stroke-width="1.55" fill="#000000"  />
<polygon points="521.59,245.45 523.45,243.58999999999997 525.3100000000001,245.45 523.45,247.31" stroke="#F7F7F7" stroke-width="1.55" fill="#F7F7F7"  />
<polygon points="521.59,245.45 523.45,243.58999999999997 525.3100000000001,245.45 523.45,247.31" stroke="#000000" stroke-width="1.55" fill="#000000"  />
</svg>